<svg version="1.1" xmlns="http://www.w3.org/2000/svg" viewBox="-261.2 -3813.6499999999996 4615.4 4551.849999999999"><desc>Created with Snap</desc><defs></defs><g><rect x="-261.2" y="-3813.6499999999996" width="4615.4" height="4551.849999999999" fill="none" style=""></rect><g transform="matrix(20.2518,0,0,20.2518,750.3166,-3546.9536)"><g><g><g><path d="M123.2,34.5L72.6,3.7c-0.3-0.2-0.6-0.3-0.9-0.3L12.5,2c-1.8,0-2.5,2.3-1,3.3l19.5,11.9l-8.6,29.4     c2.1,0.3,4.2,0.7,6.2,1.3c11.7,3.5,20.8,10.6,24.5,20.1l0,0l0,0c8.2-5.9,19.7-7.1,31.5-3.6c2.1,0.6,4.1,1.4,6,2.3l8.6-29.4     l22.1,0.5l-1.7,5.9c-0.9,0-1.8,0.6-2.1,1.5c-0.2,0.7,0,1.5,0.4,2c-1.3,2.2-5.2,8.7-6.9,14.5c0,0,0.4,1.4,3.1,2.3     c2.8,0.7,3.9-0.3,3.9-0.3c1.7-5.8,2-13.4,2.1-15.9c0.7-0.2,1.2-0.7,1.4-1.4c0.3-1-0.1-1.9-1-2.4l1.8-6.2     C124.1,37.5,124.6,35.4,123.2,34.5z M85.5,56.4c-10.1-2.6-20.2-2.9-29.1,0.8C51,49.3,42.3,44,32.4,40.8l5.7-19.3l24,14.7     c0.3,0.2,0.6,0.3,0.9,0.3l28.2,0.7L85.5,56.4z" fill="#292929" style=""></path></g></g><g><g><path d="M87.8,72.7c-0.3-0.2-0.7-0.3-1-0.4c0.6,2.7,0.9,5.6,0.9,8.5c0,4.1-0.6,8.1-1.8,11.8H71.5c0.6-3.7,0.9-7.7,0.9-11.8     c0-2.1-0.1-4.1-0.2-6.1c-0.1-1.9-0.4-3.7-0.6-5.5c-2.4,0-4.7,0.3-6.8,0.8c0.1,0.3,0.1,0.7,0.2,1c0.2,1.6,0.4,3.3,0.5,5     c0.1,1.5,0.2,3.1,0.2,4.7c0,4.2-0.3,8.1-1,11.8H34c-0.1-0.7-0.2-1.5-0.3-2.2c-0.2-1.5-0.4-3.1-0.5-4.7c-0.1-1.6-0.2-3.1-0.2-4.8     c0-4.2,0.3-8.1,1-11.8h12.3c-1.2-2.5-2.9-4.8-5.1-6.8h-5.6c0.4-1.2,0.8-2.3,1.2-3.4c-1.9-1.2-3.9-2.2-6.1-3.1     c-0.8,2-1.5,4.2-2.1,6.5H15.6c1.8-3.3,4.1-6.2,6.7-8.8c-0.2,0-0.5-0.1-0.7-0.1l-7.5-1c-2.4,3-4.5,6.3-6.1,9.9     c-0.3,0.6-0.5,1.2-0.8,1.9c-2.1,5.2-3.2,10.8-3.2,16.7s1.1,11.5,3.2,16.7c0.2,0.6,0.5,1.3,0.8,1.9c7.1,15.8,23,26.7,41.3,26.7     s34.2-11,41.3-26.7c0.3-0.6,0.5-1.2,0.8-1.9c2.1-5.2,3.2-10.8,3.2-16.7c0-1.7-0.1-3.3-0.3-4.9L87.8,72.7z M10.8,80.7     c0-4.1,0.6-8.1,1.8-11.8h14.4c-0.6,3.7-0.9,7.7-0.9,11.8c0,2,0.1,3.9,0.2,5.9c0.1,2,0.4,4,0.7,5.9H12.6     C11.4,88.8,10.8,84.8,10.8,80.7z M15.6,99.3h12.9c0.2,0.7,0.4,1.3,0.5,2c0.5,1.8,1.2,3.5,1.8,5.2c1.9,4.5,4.2,8.2,6.9,11     C28.3,114.5,20.3,107.9,15.6,99.3z M49.3,116c-4.2,0-8.6-4.3-11.8-11.6c-0.7-1.6-1.3-3.3-1.9-5.2H63     C59.9,109.7,54.4,116,49.3,116z M60.8,117.5c4-4.2,7.3-10.5,9.3-18.2H83C78.2,107.9,70.3,114.5,60.8,117.5z" fill="#292929" style=""></path></g></g></g><desc>Created with Snap</desc><defs></defs></g><g><g transform="matrix(1,0,0,-1,0,0)"><path d="M118 594Q173 647 317 647Q407 647 468 629Q529 611 559 591Q590 571 590 547Q590 492 462 438Q443 429 362 401Q282 374 254 364Q193 341 173 328Q173 323 177 319Q181 316 196 307Q211 299 241 283Q271 268 324 239Q482 153 649 55Q657 49 670 38Q683 28 683 15Q683 3 675 -2Q667 -7 656 -10Q645 -12 633 -12L613 -12Q593 -12 529 31Q466 74 419 106Q373 138 325 168Q212 241 146 263L146 34Q146 14 112 14L101 14Q80 14 70 35Q56 67 56 153L59 354Q59 502 46 614Q70 655 105 611Q113 601 118 594ZM456 582L391 583Q165 583 131 531Q121 517 121 495Q121 474 123 458Q128 417 146 399Q149 398 156 398Q164 398 184 402Q205 406 239 416Q274 427 313 442Q352 457 388 473Q501 524 501 556Q501 574 456 582ZM745 87Q745 106 760 120Q776 135 784 140Q793 146 796 149Q801 58 919 58Q1012 58 1136 116Q1224 156 1254 198Q1264 211 1264 219Q1264 228 1261 233L846 326Q828 330 811 343Q780 365 780 383Q780 452 878 508Q986 569 1167 600Q1208 607 1228 608Q1234 606 1246 604Q1259 603 1272 600Q1303 593 1298 574Q1298 540 1168 520Q1000 495 958 478Q917 461 898 443Q880 425 879 400Q879 395 902 389Q925 383 957 374Q989 366 1040 352Q1164 318 1344 266Q1354 244 1354 225Q1354 172 1292 123Q1222 68 1098 30Q995 -1 934 -1Q883 -1 837 17Q791 35 768 52Q745 69 745 87ZM1878 437L1876 686L1956 683L1947 97L2474 82Q2490 77 2490 65Q2490 53 2475 40Q2446 14 2409 14Q2400 14 2390 16L1853 21Q1878 114 1878 437ZM2927 166Q2852 48 2727 20Q2698 14 2674 14Q2651 14 2635 14Q2620 15 2601 19Q2582 23 2566 32Q2529 53 2529 91Q2525 109 2525 131Q2525 154 2535 191Q2545 228 2571 271Q2598 314 2636 350Q2715 426 2807 448Q2834 454 2856 454Q2879 454 2897 451Q2955 451 2975 372Q2988 322 2990 232Q2993 143 2995 94Q2998 46 3008 6L2949 6Q2945 33 2943 54Q2941 75 2939 93Q2934 135 2927 166ZM2923 321Q2923 379 2866 379Q2859 380 2852 380Q2779 380 2698 310Q2660 278 2633 238Q2593 181 2593 136Q2593 77 2661 66Q2751 68 2833 148Q2868 183 2891 224Q2923 279 2923 321ZM3444 158L3445 219Q3445 338 3432 394Q3440 409 3408 409Q3374 409 3320 392Q3266 375 3232 358Q3151 319 3142 282L3142 10L3075 10Q3062 44 3062 201Q3062 341 3067 407Q3073 473 3076 482Q3102 499 3118 499Q3143 499 3143 440Q3143 417 3140 395Q3138 374 3138 366Q3300 485 3389 485Q3490 485 3504 322Q3510 265 3510 164L3509 85Q3509 41 3511 0Q3501 -6 3495 -6Q3492 -5 3482 -3Q3472 -1 3456 0Q3446 40 3445 81Q3444 123 3444 158ZM3856 -428L3842 -427Q3812 -427 3778 -431L3740 -431Q3680 -431 3646 -408Q3628 -396 3628 -372L3858 -361Q3964 -358 3964 -247Q3964 -243 3964 -234Q3964 -224 3964 -192L3969 130Q3969 147 3968 158Q3806 7 3656 7Q3643 7 3630 8Q3563 8 3563 67Q3565 113 3590 168Q3615 224 3654 275Q3694 327 3744 368Q3821 431 3893 431Q3977 431 4031 342Q4047 104 4047 4Q4047 -96 4044 -160Q4041 -224 4030 -277Q4020 -330 4003 -361Q3986 -392 3963 -406Q3925 -428 3856 -428ZM3916 358Q3904 362 3882 362Q3861 362 3827 344Q3793 326 3762 297Q3731 269 3704 234Q3638 148 3638 97Q3638 81 3647 73Q3654 69 3664 69Q3675 69 3695 72Q3715 76 3749 90Q3784 105 3821 128Q3858 151 3888 179Q3958 243 3958 304Q3958 341 3916 358Z" fill="" style=""></path></g></g></g></svg>